<svg width="124" height="56" viewBox="0 0 124 56" fill="none" xmlns="http://www.w3.org/2000/svg">
<g clip-path="url(#clip0_774_6085)">
<path d="M123.041 46.3417C122.776 44.5181 121.775 42.8281 118.516 42.8281C115.84 42.8281 114.063 44.3823 114.063 46.441C114.063 48.4998 115.539 49.3528 118.586 49.9567C120.93 50.4247 121.74 50.8604 121.74 52.2322C121.74 53.3528 120.824 54.6091 118.551 54.6091C116.631 54.6091 115.452 53.8208 115.188 52.1653H113.694C113.835 54.4753 115.487 55.8796 118.481 55.8796C121.916 55.8796 123.321 53.989 123.321 52.0985C123.321 49.906 121.829 49.138 118.499 48.516C116.068 48.0641 115.539 47.2779 115.539 46.441C115.539 45.2354 116.436 44.0966 118.535 44.0966C120.633 44.0966 121.457 45.3205 121.528 46.3397H123.041V46.3417ZM107.809 47.0449C107.437 45.3043 106.152 42.8281 101.928 42.8281C98.1062 42.8281 95.2021 45.5535 95.2021 49.3528C95.2021 53.3852 97.9297 55.8775 101.768 55.8775C105.801 55.8775 107.333 53.452 107.896 51.292L106.399 51.1258C105.835 53.2332 104.427 54.607 101.928 54.607C98.0709 54.607 96.7859 51.8614 96.7859 49.3508C96.7859 46.8402 98.2473 44.0946 101.928 44.0946C103.935 44.0946 105.644 44.899 106.312 47.1421L107.809 47.0408V47.0449ZM87.0316 55.6445H88.5075V43.0632H87.0316V55.6445ZM69.3184 55.6445H70.7943V45.2698H70.8296L78.2798 55.6445H79.8803V43.0632H78.4044V53.4379H78.3691L70.9189 43.0632H69.3184V55.6445ZM52.2549 55.6445H53.926L55.2462 52.0964H60.741L62.0592 55.6445H63.7323L58.7503 43.0632H57.237L52.2549 55.6445ZM60.2469 50.828H55.7403L57.976 44.8362H58.0113L60.249 50.828H60.2469ZM41.0724 50.1573H45.5458C45.3694 52.0478 44.3481 54.6111 40.9665 54.6111C38.2181 54.6111 36.2626 52.5848 36.2626 49.4217C36.2626 46.4268 37.9005 44.0986 41.0184 44.0986C43.8187 44.0986 44.9106 45.5717 45.3154 46.828L46.7747 46.6943C46.4592 44.7004 44.3647 42.8281 41.2634 42.8281C36.8792 42.8281 34.6788 46.0236 34.6788 49.3528C34.6788 53.219 36.9497 55.8775 40.9457 55.8775C45.4379 55.8775 47.0716 52.4652 47.1255 48.8848H41.0703V50.1532L41.0724 50.1573ZM27.76 55.6465H29.5722L26.0516 50.1248C27.513 49.7925 29.0615 48.7551 29.0615 46.4957C29.0615 44.8544 28.0755 43.0652 24.5362 43.0652H20.4343V55.6465H21.9103V50.2586H24.4988L27.7579 55.6465H27.76ZM21.9123 48.9881V44.3337H24.4656C25.9997 44.3337 27.4777 44.8362 27.4777 46.6963C27.4777 48.2019 26.2986 48.9901 24.5549 48.9901H21.9123V48.9881ZM0.502076 49.3549C0.502076 53.3872 3.3356 55.8796 7.22781 55.8796C11.12 55.8796 13.9535 53.1542 13.9535 49.3549C13.9535 45.3225 11.12 42.8302 7.22781 42.8302C3.3356 42.8302 0.5 45.5535 0.5 49.3549M12.3697 49.3549C12.3697 51.4298 10.9436 54.6111 7.22574 54.6111C3.5079 54.6111 2.08179 51.4298 2.08179 49.3549C2.08179 46.8118 3.54526 44.0986 7.22574 44.0986C10.9062 44.0986 12.3697 46.8118 12.3697 49.3549Z" fill="#434341"/>
<path d="M0.989929 1.23389H3.17787V19.1626L21.958 1.23389H24.9639L12.8409 12.8021L26.1035 34.4653H23.7785L11.2923 14.2752L3.17787 22.0197V34.4653H0.989929V1.23389Z" fill="#434341"/>
<path d="M58.2728 17.8679C58.2728 9.65532 51.9602 2.66052 43.7461 2.66052C35.4863 2.66052 29.3127 9.65532 29.3127 17.8679C29.3127 26.0806 35.4863 33.0713 43.7461 33.0713C51.9602 33.0713 58.2728 26.0806 58.2728 17.8679ZM27.2722 17.8679C27.2722 8.57327 34.5127 0.879395 43.7461 0.879395C52.9815 0.879395 60.3134 8.57327 60.3134 17.8679C60.3134 27.1585 52.9815 34.8545 43.7461 34.8545C34.5127 34.8545 27.2722 27.1585 27.2722 17.8679Z" fill="#434341"/>
<path d="M68.3116 3.12248V16.5812H78.4293C83.6251 16.5812 87.044 13.9085 87.044 9.80523C87.044 6.02617 83.7621 3.12248 79.434 3.12248H68.3116ZM66.078 1.23193H79.434C85.2671 1.23193 89.2818 4.73542 89.2818 9.84981C89.2818 12.2956 88.2771 14.4597 86.3611 16.0726C85.1778 17.0878 84.3579 17.5032 82.1699 18.1475L90.328 34.4633H88.0944L80.0256 18.5163H68.3116V34.4633H66.078V1.23193Z" fill="#434341"/>
<path d="M108.55 3.49126L100.392 23.3572H116.706L108.55 3.49126ZM107.227 1.23193H109.824L123.409 34.4633H121.264L117.484 25.3389H99.5697L95.7875 34.4633H93.6016L107.227 1.23396V1.23193Z" fill="#434341"/>
<path d="M117.652 1.8501H120.079V2.35667H119.161V4.62614H118.564V2.35667H117.65V1.8501H117.652Z" fill="#434341"/>
<path d="M121.848 4.62614L121.144 2.81259V4.62614H120.588V1.8501H121.291L122.051 3.80751L122.807 1.8501H123.502V4.62614H122.942V2.81259L122.252 4.62614H121.85H121.848Z" fill="#434341"/>
</g>
<defs>
<clipPath id="clip0_774_6085">
<rect width="123" height="55" fill="white" transform="translate(0.5 0.879395)"/>
</clipPath>
</defs>
</svg>
