<svg viewBox="0 0 234.25 122" xmlns="http://www.w3.org/2000/svg"><defs><style>.cls-1{fill:#fb5373;}.cls-2{fill:#343536;}</style></defs><g data-name="Layer 2" id="Layer_2"><g data-name="Layer 1" id="Layer_1-2"><path d="M122.77,75a3.58,3.58,0,0,0,2-.78,9.53,9.53,0,0,0,2-1.88c.59-.73,1.11-1.43,1.55-2.1a3.2,3.2,0,0,0,.66-1.66c0-1.17-.81-1.84-2.43-2-2.06,0-4.94,3.21-5.53,3.87a3.16,3.16,0,0,0-.89,2.1,2.49,2.49,0,0,0,.78,1.55A2.4,2.4,0,0,0,122.77,75Z" class="cls-1"></path><path d="M178.07,24.77s-9.55,10-14.94,16.71S153,54.34,148.87,60s-8.71,12.16-13.72,19.68c-4.08,4.55-27.39,14.09-20,6.64,8.52-8.62,5.2-11.28-.65-7.85-1.62,1-2.91,1.43-3.65,1.88C108.76,81.46,96.7,86.57,91,88.48a62.65,62.65,0,0,1-20,2.88,48,48,0,0,1-16.59-3,133.69,133.69,0,0,1-15.49-6.75q6.2-6.41,12.83-13.93t12.94-15Q71,45.12,76.32,38.27C79.86,33.7,93.13,15.52,94.9,13.38A22.93,22.93,0,0,1,100,8.63c9.3-8.63,15.85-4.08,14.49-5.87A6.31,6.31,0,0,0,109.28,0a19.84,19.84,0,0,0-5.76.88A20.41,20.41,0,0,0,97.44,4.2a55.06,55.06,0,0,0-7,6.53C88,13.46,76.79,28.61,76,29.64S74.32,31.78,73.44,33q-4.2,5.76-9,12.17T54.75,57.84q-5,6.31-10,12.06a111.49,111.49,0,0,1-9.62,9.95q-7.08-3.31-13.6-6A31.38,31.38,0,0,0,10,71.23a11.4,11.4,0,0,0-7,2.21,7.74,7.74,0,0,0-3,6.64,12.42,12.42,0,0,0,1.55,6.41A13.55,13.55,0,0,0,5.42,90.8a16.17,16.17,0,0,0,5.09,2.44,19.5,19.5,0,0,0,5.2.77A20.19,20.19,0,0,0,25,91.47a66.57,66.57,0,0,0,9.73-6.31,161.44,161.44,0,0,0,17.81,7.08,56.46,56.46,0,0,0,17.8,2.88A53.56,53.56,0,0,0,81.85,93.9a100.63,100.63,0,0,0,9.84-2.65c2.88-1,15-6,17.58-6.75-6,7.85-.08,7.86,1.75,7.85a47.21,47.21,0,0,0,12.64-3.79l.21-.08a46.61,46.61,0,0,0,8.63-4.64s-5.27,13,2.4,6.87c8.17-6.52,16.71-11.09,18.37-9.55,1.29,1.2-2.75,5.2-3.19,5.66-7.85,8.3,3.73,4.76,3.87,4.76a89.16,89.16,0,0,0,13.61-4.76q4.31-2.1,5-2.1a.39.39,0,0,0,.44-.44.64.64,0,0,1-.22-.44c0-.15-.15-.22-.45-.22h-.22a21.14,21.14,0,0,0-4.09.88q-2.1.66-4.2,1.44c-1.41.52-2.79.81-4,1.32-9.06,3.88-5.75-.33-3.43-3.42a4.44,4.44,0,0,0,.66-2.66,3.61,3.61,0,0,0-1.11-2.65,3.18,3.18,0,0,0-2.21-1.11,20,20,0,0,0-8.18,1.33q-2.88,1.32-4.87,2.21c.89-1.33,1.92-2.91,3.1-4.76s2.5-3.87,4-6.08q6.86-5.75,14.49-13.27T176.41,42q6.51-7.31,10.84-13.27c2.87-4,4.31-6.93,4.31-8.85C191.56,12,178.07,24.77,178.07,24.77ZM31.19,83.62a55.31,55.31,0,0,1-8.85,6,14.1,14.1,0,0,1-7.3,2,10.7,10.7,0,0,1-6.52-3.21q-3.21-3-3.21-8.52a2.74,2.74,0,0,1,1.1-2.21c.74-.59,2.14-.88,4.21-.88a25,25,0,0,1,9.18,1.88q4.75,1.88,9.84,4.31a12.08,12.08,0,0,0,1.55.67l.22-.23.22.45C31.34,83.84,31.19,83.76,31.19,83.62Zm154.06-56A148.49,148.49,0,0,1,174.75,41q-6.19,7.2-12.94,14.16T150.19,66.36a18.78,18.78,0,0,0,1.88-2.65c.52-.89,1.14-1.85,1.88-2.88q4.2-6,9.52-12.61t10.17-12.5c3.24-3.9,6.21-7.25,8.74-10.17C187.57,19.55,190.07,20.5,185.25,27.65Z" class="cls-2"></path><path d="M234.25,69.24c0-.45-.3-.67-.89-.67h-.22q-.45,0-6.52.67a139.34,139.34,0,0,1-14.71.66q-6.42,0-13.17-.33t-13.16-1q5.31-7.06,12.06-15.59c4.49-5.68-2.87-1.19-6.26,2.86s-10.66,11.33-11.55,12.51c-9.57-1-17.92-1.64-22.17-1.64s-9,5.33-2.12,5.33,5.58.17,8.81.29l12.16.45c-.74.74-1.47,1.43-2.21,2.1s-2.07,2.69-4,6.08A22.54,22.54,0,0,1,169,83.62a7,7,0,0,0-.88,3.53,3.92,3.92,0,0,0,2.1,3.65A7.85,7.85,0,0,0,174.08,92a13.9,13.9,0,0,0,5.53-.66,29.63,29.63,0,0,0,4.87-2.1,28.55,28.55,0,0,0,3.76-2.44,15.44,15.44,0,0,1,2-1.43l.44-.45.22-.22v-.66h-.22c0-.15-.15-.22-.44-.22H190a9,9,0,0,0-1.77.77c-1,.52-2.33,1.07-3.87,1.66a32.91,32.91,0,0,1-5,1.44,9.82,9.82,0,0,1-4.87-.11c-.44-.15-.66-.37-.66-.67a4.89,4.89,0,0,1,.66-2.32q.66-1.22,1.11-2.1l1.1-1.77c0-.15.23-.44.67-.89l.66-.88c1.18-1.33,2.47-2.65,3.87-4a5.93,5.93,0,0,1,3.87-2c1.62.15,3.25.22,4.87.22h4.87q9.28,0,16.37-.44c4.71-.3,8.7-.67,11.94-1.11q5.75-.89,10-1.77h-.22C234,69.76,234.25,69.53,234.25,69.24Z" class="cls-2"></path><path d="M50.64,118.84a5.25,5.25,0,0,1-1.15,1.66,5,5,0,0,1-1.69,1.09,5.65,5.65,0,0,1-2,.38,5.5,5.5,0,0,1-2-.37,5,5,0,0,1-2.82-2.7,5.27,5.27,0,0,1-.41-2.09,5.12,5.12,0,0,1,.44-2.18A4.86,4.86,0,0,1,42.1,113a5.15,5.15,0,0,1,1.74-1,6.08,6.08,0,0,1,2.09-.36,5.25,5.25,0,0,1,2.15.42,4.85,4.85,0,0,1,2.63,2.78,5.33,5.33,0,0,1,.35,1.94A5.13,5.13,0,0,1,50.64,118.84ZM49.1,115a5.45,5.45,0,0,0-.67-1.58,3.7,3.7,0,0,0-1.1-1.16,3,3,0,0,0-3.15,0,3.56,3.56,0,0,0-1.1,1.15,5.31,5.31,0,0,0-.64,1.6,7.91,7.91,0,0,0-.2,1.81,7.5,7.5,0,0,0,.22,1.85,5.25,5.25,0,0,0,.67,1.56,3.43,3.43,0,0,0,1.12,1.09,2.91,2.91,0,0,0,1.55.41,2.67,2.67,0,0,0,1.55-.45,3.83,3.83,0,0,0,1.09-1.17,5.61,5.61,0,0,0,.66-1.6,7.64,7.64,0,0,0,.21-1.77A7.46,7.46,0,0,0,49.1,115Z" class="cls-2"></path><path d="M66.45,121.9l-.19-.19-.13-.15-.17-.25-.33-.48-.48-.71c-.13-.22-.27-.42-.41-.63s-.29-.42-.46-.63-.36-.45-.58-.71a6,6,0,0,0-.62-.61,1.6,1.6,0,0,0-.7-.35,1.93,1.93,0,0,0-.4-.06h-.33v1.59c0,.45,0,.84,0,1.15s0,.55,0,.77a1,1,0,0,0,.16.54,1.23,1.23,0,0,0,.44.37,1.91,1.91,0,0,0,.9.22v.14H58.68v-.14a3.65,3.65,0,0,0,.67-.17,1.12,1.12,0,0,0,.51-.34A.53.53,0,0,0,60,121a3.7,3.7,0,0,0,.07-.38q0-.21,0-.45c0-.16,0-.32,0-.47v-.54c0-.22,0-.47,0-.74v-4.9c0-.18,0-.34,0-.5a2.63,2.63,0,0,0-.07-.42.49.49,0,0,0-.14-.27,1,1,0,0,0-.47-.31,5.49,5.49,0,0,0-.64-.13v-.14h3.86q.95,0,1.68.06a3.47,3.47,0,0,1,1.34.38,2.67,2.67,0,0,1,1,.88,2.39,2.39,0,0,1,.38,1.41,2.15,2.15,0,0,1-.19.93,2.48,2.48,0,0,1-.5.74,3.35,3.35,0,0,1-.74.54,5.81,5.81,0,0,1-.89.38v0a1.92,1.92,0,0,1,.46.37,5.89,5.89,0,0,1,.44.53c.24.36.51.75.8,1.16l.76,1.1a4.22,4.22,0,0,0,1,1.07,2.7,2.7,0,0,0,1.16.44v.14Zm-1.4-8.78a2.49,2.49,0,0,0-1-.88,2.92,2.92,0,0,0-.71-.22,4,4,0,0,0-.78-.07h-.48l-.29,0c0,.05,0,.1,0,.15a1.57,1.57,0,0,0,0,.16c0,.06,0,.16,0,.27s0,.29,0,.5,0,.7,0,1.12,0,.81,0,1.2v1.55c.39,0,.75,0,1.08,0a4.53,4.53,0,0,0,1-.21,2.52,2.52,0,0,0,.77-.38,2.26,2.26,0,0,0,.53-.54,2,2,0,0,0,.3-.66,2.52,2.52,0,0,0,.1-.73A2.28,2.28,0,0,0,65.05,113.12Z" class="cls-2"></path><path d="M86.1,117.32a.8.8,0,0,0-.41.29,1,1,0,0,0-.11.48c0,.22,0,.44,0,.65v2.06a2.36,2.36,0,0,1-.48.28,8.26,8.26,0,0,1-1,.4,7.79,7.79,0,0,1-1.23.35,6.88,6.88,0,0,1-1.35.14,7.39,7.39,0,0,1-2.4-.35,4.63,4.63,0,0,1-1.78-1A4.4,4.4,0,0,1,76.25,119a5.69,5.69,0,0,1-.39-2.16,6.34,6.34,0,0,1,.07-.81,5.55,5.55,0,0,1,.25-1,5.64,5.64,0,0,1,.49-1,5.55,5.55,0,0,1,.8-1A5.22,5.22,0,0,1,79.13,112a6.34,6.34,0,0,1,2.4-.4,6.73,6.73,0,0,1,1.5.15,9.26,9.26,0,0,1,1.09.32,4.84,4.84,0,0,1,.68.33,1.36,1.36,0,0,0,.27.15s.07-.06.16-.17.18-.25.31-.41h.12V115h-.17a5.13,5.13,0,0,0-.46-1.2,5.05,5.05,0,0,0-.66-.93,3.32,3.32,0,0,0-1.16-.77,4,4,0,0,0-1.58-.3,3.38,3.38,0,0,0-1.68.42,4,4,0,0,0-1.27,1.11,5.51,5.51,0,0,0-.8,1.61,6.3,6.3,0,0,0-.28,1.91,7.08,7.08,0,0,0,.27,2,4.56,4.56,0,0,0,.77,1.56,3.54,3.54,0,0,0,1.24,1,3.77,3.77,0,0,0,1.68.36,3.28,3.28,0,0,0,1.26-.23,1.89,1.89,0,0,0,.92-.75,1.57,1.57,0,0,0,.17-.65,7.5,7.5,0,0,0,.06-1,7.8,7.8,0,0,0,0-.89,1.11,1.11,0,0,0-.29-.65,1.68,1.68,0,0,0-1.14-.44v-.14h4.13v.14A2.94,2.94,0,0,0,86.1,117.32Z" class="cls-2"></path><path d="M100,121.9v-.14l.2,0a1.62,1.62,0,0,0,.34-.1.92.92,0,0,0,.31-.2.41.41,0,0,0,.13-.32,2,2,0,0,0-.07-.42l-.22-.7c-.1-.28-.2-.59-.33-.92s-.25-.7-.39-1.06H96.21c-.14.36-.28.7-.41,1s-.26.65-.4,1a3.8,3.8,0,0,0-.29,1.07.47.47,0,0,0,.11.31.86.86,0,0,0,.29.19,2.11,2.11,0,0,0,.38.12l.39.06v.14h-3v-.16a1.46,1.46,0,0,0,.62-.19,2.32,2.32,0,0,0,.31-.21,3.73,3.73,0,0,0,.32-.47,10.65,10.65,0,0,0,.55-1.09q.3-.66.66-1.5l.76-1.75c.26-.59.51-1.19.77-1.8s.49-1.17.72-1.7l-.15-.31a1.74,1.74,0,0,0,.46-.27,2.27,2.27,0,0,0,.36-.32,1.87,1.87,0,0,0,.26-.33,1.66,1.66,0,0,0,.16-.25h.12l.83,2.22.75,2c.24.65.48,1.28.7,1.89s.45,1.2.68,1.79a6.51,6.51,0,0,0,.29.73l.3.66a2.24,2.24,0,0,0,.13.19,1.36,1.36,0,0,0,.26.29,1.46,1.46,0,0,0,.4.26,1.4,1.4,0,0,0,.56.13v.17Zm-1.85-8.54c-.06.12-.14.31-.25.57s-.24.59-.4,1L97,116.17l-.62,1.54h3.51c-.16-.42-.33-.84-.49-1.27s-.32-.83-.48-1.22-.3-.74-.42-1.07Z" class="cls-2"></path><path d="M121.37,112.16a1.23,1.23,0,0,0-.49.6,2.39,2.39,0,0,0-.12.79c0,.38,0,.78-.06,1.22s0,.88,0,1.43,0,1.14,0,1.77v.9c0,.33,0,.66,0,1v1.94a.16.16,0,0,1,0,.09.18.18,0,0,1-.11,0,.4.4,0,0,1-.25-.14l-2.19-2.54-1.88-2.2L114.42,115c-.57-.66-1.17-1.35-1.81-2.07v5.95c0,.48,0,.91,0,1.3a2.13,2.13,0,0,0,.18.86,1,1,0,0,0,.48.49,3.32,3.32,0,0,0,.91.23v.14h-3.47v-.14a2.73,2.73,0,0,0,.68-.18,1.06,1.06,0,0,0,.54-.44,2,2,0,0,0,.25-.88q.06-.57.09-1.38c0-.4,0-.88,0-1.43s0-1.14,0-1.77V114c0-.19,0-.42,0-.69a1.76,1.76,0,0,0-.2-.67,1.23,1.23,0,0,0-.37-.41,1.32,1.32,0,0,0-.45-.21l-.48-.09v-.14h2.87l6.68,7.81v-4.79c0-.38,0-.74,0-1.08a2.38,2.38,0,0,0-.12-.81,1.34,1.34,0,0,0-.5-.65,2.64,2.64,0,0,0-1-.34v-.14h3.5v.14A2.18,2.18,0,0,0,121.37,112.16Z" class="cls-2"></path><path d="M129.89,121.9v-.14a3.18,3.18,0,0,0,.66-.18,1.46,1.46,0,0,0,.51-.37.67.67,0,0,0,.11-.24,3,3,0,0,0,.05-.37,3.15,3.15,0,0,0,0-.44c0-.16,0-.31,0-.46s0-.31,0-.54,0-.47,0-.74,0-.54,0-.82v-4.08c0-.16,0-.32,0-.47a3.91,3.91,0,0,0-.07-.39.81.81,0,0,0-.12-.28,1.18,1.18,0,0,0-.49-.34,2.92,2.92,0,0,0-.66-.15v-.14h4.22v.14a4.08,4.08,0,0,0-.63.15,1,1,0,0,0-.53.46,1.33,1.33,0,0,0-.13.6c0,.25,0,.48,0,.69s0,.47,0,.7,0,.46,0,.7v4.72c0,.27,0,.54,0,.79a1,1,0,0,0,.13.54,1,1,0,0,0,.53.36,2.84,2.84,0,0,0,.66.16v.14Z" class="cls-2"></path><path d="M151.58,115a5.14,5.14,0,0,0-.55-1.27,4.85,4.85,0,0,0-.87-1A3.94,3.94,0,0,0,149,112a3.5,3.5,0,0,0-1.33-.25,3.45,3.45,0,0,0-1.74.43,4.14,4.14,0,0,0-1.27,1.16,5.49,5.49,0,0,0-.79,1.63,6.51,6.51,0,0,0-.28,1.87,6.2,6.2,0,0,0,.29,1.9,4.74,4.74,0,0,0,.83,1.54,3.86,3.86,0,0,0,1.3,1,3.75,3.75,0,0,0,1.69.38,3.49,3.49,0,0,0,1.37-.27,4.16,4.16,0,0,0,2-1.71,3.6,3.6,0,0,0,.47-1.18h.17l0,3.1h-.17a3.84,3.84,0,0,0-.35-.43c-.12-.13-.21-.2-.26-.2a1.24,1.24,0,0,0-.25.15,4.37,4.37,0,0,1-.65.32,5.8,5.8,0,0,1-1,.31,6.4,6.4,0,0,1-1.39.14,7,7,0,0,1-2.37-.38,5,5,0,0,1-1.8-1.06,4.71,4.71,0,0,1-1.14-1.63,5.44,5.44,0,0,1-.39-2.09,4.14,4.14,0,0,1,0-.58,4.55,4.55,0,0,1,.12-.69,5.38,5.38,0,0,1,.26-.77,4.41,4.41,0,0,1,.41-.81,4.82,4.82,0,0,1,.74-.92,4.71,4.71,0,0,1,1-.77,6.45,6.45,0,0,1,1.34-.53,6.69,6.69,0,0,1,1.68-.19,6.43,6.43,0,0,1,1.48.15A7.85,7.85,0,0,1,150,112a4.16,4.16,0,0,1,.65.34,1.24,1.24,0,0,0,.25.15.24.24,0,0,0,.11-.06l.17-.15.19-.22.18-.24h.16V115Z" class="cls-2"></path><path d="M166.66,120.33a2.73,2.73,0,0,1-.77.92,3.23,3.23,0,0,1-1.16.57,5.72,5.72,0,0,1-1.48.18,6.59,6.59,0,0,1-1.18-.09,4.1,4.1,0,0,1-.82-.2,2.63,2.63,0,0,1-.49-.22.83.83,0,0,0-.2-.1s-.09.06-.19.17l-.25.33H160l0-2.81h.14a4.41,4.41,0,0,0,.33.74,5.22,5.22,0,0,0,.43.68,3.76,3.76,0,0,0,.49.55,2.21,2.21,0,0,0,.5.37,3.29,3.29,0,0,0,.63.25,2.39,2.39,0,0,0,.77.13,2.47,2.47,0,0,0,1.69-.57,2,2,0,0,0,.65-1.54,1.77,1.77,0,0,0-.13-.69,1.54,1.54,0,0,0-.35-.52,1.76,1.76,0,0,0-.51-.37,5.38,5.38,0,0,0-.64-.29l-.59-.21-.47-.16-.45-.15-.56-.21a2.7,2.7,0,0,1-.7-.39,2.46,2.46,0,0,1-.59-.57,2.81,2.81,0,0,1-.41-.74,2.18,2.18,0,0,1-.16-.85,2.81,2.81,0,0,1,.28-1.31,2.58,2.58,0,0,1,.75-.92,3.22,3.22,0,0,1,1.08-.54,4.57,4.57,0,0,1,1.29-.18,4.79,4.79,0,0,1,1.08.11,4.87,4.87,0,0,1,.75.23,3.14,3.14,0,0,1,.43.23l.16.11s.09-.06.18-.17.17-.22.25-.34h.15v2.61h-.15a5.94,5.94,0,0,0-.44-.92,4.3,4.3,0,0,0-.62-.82,3.07,3.07,0,0,0-.8-.59,2.22,2.22,0,0,0-1-.22,2.49,2.49,0,0,0-.83.13,1.9,1.9,0,0,0-.68.38,1.77,1.77,0,0,0-.45.62,2.13,2.13,0,0,0-.16.86,1.61,1.61,0,0,0,.45,1.19,3,3,0,0,0,1.17.72,4.36,4.36,0,0,0,.53.2l.48.16.49.17.51.18a3.25,3.25,0,0,1,1.48,1,2.88,2.88,0,0,1,.26,2.88Z" class="cls-2"></path></g></g></svg>